# Blender v2.77 (sub 0) OBJ File: 'Mountain1.blend'
# www.blender.org
mtllib Mountain1.mtl
o Plane
v -1.000000 0.000000 1.000000
v 1.000000 0.000000 1.000000
v -1.000000 0.000000 -1.000000
v 1.000000 0.000000 -1.000000
v -1.000000 0.000000 0.000000
v 0.000000 0.000000 1.000000
v 1.000000 0.000000 0.000000
v 0.000000 0.000000 -1.000000
v 0.000000 1.530875 -0.018457
v -1.000000 0.000000 0.500000
v 0.500000 0.000000 1.000000
v 1.000000 0.000000 -0.500000
v -0.500000 0.000000 -1.000000
v -1.000000 0.000000 -0.500000
v -0.500000 0.000000 1.000000
v 1.000000 0.000000 0.500000
v 0.500000 0.000000 -1.000000
v 0.000000 0.954735 -0.500000
v 0.000000 0.333842 0.500000
v -0.500000 0.690466 0.000000
v 0.500000 0.262789 0.000000
v 0.500000 0.501277 0.403781
v -0.500000 0.150020 0.500000
v -0.500000 0.153382 -0.500000
v 0.375000 0.736680 -0.375000
v -1.000000 0.000000 0.750000
v 0.750000 0.000000 1.000000
v 1.000000 0.000000 -0.750000
v -0.750000 0.000000 -1.000000
v -1.000000 0.000000 -0.250000
v -0.250000 0.000000 1.000000
v 1.000000 0.000000 0.250000
v 0.250000 0.000000 -1.000000
v 0.000000 0.161312 -0.750000
v 0.000000 0.536486 0.250000
v -0.750000 0.000000 0.000000
v 0.250000 1.637319 0.000000
v -1.000000 0.000000 0.250000
v 0.250000 0.000000 1.000000
v 1.000000 0.000000 -0.250000
v -0.250000 0.000000 -1.000000
v -1.000000 0.000000 -0.750000
v -0.750000 0.000000 1.000000
v 1.000000 0.000000 0.750000
v 0.750000 0.000000 -1.000000
v -0.048912 1.452956 -0.250000
v 0.000000 0.108419 0.750000
v -0.250000 0.861803 0.000000
v 0.750000 0.099500 0.000000
v 0.500000 0.501277 0.250000
v 0.500000 0.000000 0.750000
v 0.250000 0.501277 0.424171
v 0.750000 0.000000 0.500000
v -0.500000 0.290116 0.250000
v -0.500000 0.092091 0.750000
v -0.750000 0.066931 0.500000
v -0.250000 0.333842 0.500000
v -0.500000 0.153382 -0.750000
v -0.411788 0.690466 -0.250000
v -0.750000 0.000000 -0.500000
v -0.250000 0.322210 -0.500000
v 0.500000 0.098875 -0.750000
v 0.750000 0.098875 -0.500000
v 0.750000 0.099500 -0.250000
v 0.250000 0.161312 -0.750000
v -0.250000 0.690466 -0.250000
v -0.750000 0.000000 -0.250000
v -0.750000 0.000000 -0.750000
v -0.250000 0.000000 0.750000
v -0.750000 0.000000 0.750000
v -0.750000 0.066931 0.250000
v 0.750000 0.000000 0.750000
v 0.250000 0.142335 0.750000
v 0.250000 1.194548 0.250000
v 0.750000 0.000000 0.250000
v -0.250000 0.333842 0.250000
v -0.250000 0.153382 -0.750000
v 0.750000 0.098875 -0.750000
vt 0.4738 0.0751
vt 0.4943 0.0078
vt 0.5434 0.0164
vt 0.5434 0.0805
vt 0.4626 0.3332
vt 0.4609 0.2694
vt 0.5434 0.2727
vt 0.5434 0.3368
vt 0.7666 0.1898
vt 0.8438 0.2334
vt 0.8682 0.4872
vt 0.7733 0.3403
vt 0.4798 0.5544
vt 0.4798 0.6176
vt 0.4399 0.6041
vt 0.4164 0.5446
vt 0.8467 0.6265
vt 0.8473 0.8173
vt 0.7768 0.8731
vt 0.7740 0.5230
vt 0.9261 0.0751
vt 0.9895 0.0442
vt 0.9895 0.2030
vt 0.9216 0.2002
vt 0.2292 0.8984
vt 0.2292 0.8343
vt 0.2784 0.8429
vt 0.2784 0.9070
vt 0.3819 0.8101
vt 0.2945 0.8036
vt 0.1905 0.7474
vt 0.3993 0.7447
vt 0.6442 0.0450
vt 0.7169 0.0647
vt 0.7047 0.1138
vt 0.6323 0.0960
vt 0.7823 0.0447
vt 0.8557 0.0679
vt 0.8502 0.1531
vt 0.7812 0.1533
vt 0.4943 0.4563
vt 0.4626 0.3973
vt 0.5434 0.4009
vt 0.5434 0.4649
vt 0.3993 0.6806
vt 0.1801 0.6795
vt 0.3300 0.6087
vt 0.3993 0.6166
vt 0.0449 0.7688
vt 0.1630 0.5971
vt 0.1630 0.7334
vt 0.0563 0.8812
vt 0.4609 0.2053
vt 0.4738 0.1392
vt 0.5434 0.1446
vt 0.5434 0.2086
vt 0.7044 0.9401
vt 0.7031 0.9922
vt 0.6318 0.9922
vt 0.6331 0.9402
vt 0.6692 0.7479
vt 0.7757 0.9401
vt 0.7743 0.9922
vt 0.0958 0.3070
vt 0.2684 0.1792
vt 0.2479 0.2868
vt 0.0342 0.2890
vt 0.0086 0.2278
vt 0.2533 0.3750
vt 0.2533 0.3336
vt 0.3786 0.3301
vt 0.4134 0.3887
vt 0.2042 0.3890
vt 0.1688 0.3306
vt 0.0086 0.6974
vt 0.1242 0.5446
vt 0.3960 0.5032
vt 0.3960 0.4391
vt 0.4451 0.4477
vt 0.4451 0.5118
vt 0.3469 0.4946
vt 0.3469 0.4305
vt 0.4943 0.5204
vt 0.5434 0.5290
vt 0.3300 0.5446
vt 0.3993 0.5525
vt 0.7278 0.0083
vt 0.7969 0.0081
vt 0.8659 0.0080
vt 0.5751 0.0451
vt 0.5605 0.0817
vt 0.4164 0.7790
vt 0.4164 0.7150
vt 0.4655 0.7236
vt 0.4655 0.7876
vt 0.6588 0.0084
vt 0.2977 0.4860
vt 0.2839 0.4241
vt 0.5294 0.7886
vt 0.4826 0.7790
vt 0.4826 0.7150
vt 0.5294 0.7245
vt 0.6958 0.1805
vt 0.6177 0.1325
vt 0.9914 0.9345
vt 0.9898 0.9633
vt 0.9185 0.9633
vt 0.8911 0.8173
vt 0.1801 0.9538
vt 0.1801 0.8898
vt 0.2292 0.9624
vt 0.1801 0.8257
vt 0.9350 0.0078
vt 0.4515 0.6332
vt 0.4831 0.6342
vt 0.4843 0.6993
vt 0.4164 0.6993
vt 0.9394 0.3752
vt 0.9426 0.5073
vt 0.9805 0.2255
vt 0.8473 0.9633
vt 0.3275 0.8515
vt 0.3275 0.9156
vt 0.6973 0.3035
vt 0.1203 0.9342
vt 0.0930 0.9520
vt 0.4247 0.0665
vt 0.5605 0.9922
vt 0.5619 0.9402
vn 0.1904 0.9630 -0.1904
vn -0.0134 0.8462 -0.5326
vn -0.4663 0.2852 0.8374
vn 0.1916 0.9626 0.1916
vn 0.9675 0.2340 0.0956
vn 0.2031 0.6028 0.7716
vn 0.0000 1.0000 0.0000
vn -0.8355 0.4572 0.3049
vn -0.3218 0.9186 0.2294
vn -0.1430 0.6596 0.7378
vn -0.2814 0.9174 -0.2814
vn -0.7426 0.5176 -0.4250
vn -0.8064 0.2608 -0.5308
vn 0.1101 0.8817 -0.4588
vn 0.3688 0.9295 -0.0012
vn 0.8619 0.5070 -0.0013
vn 0.7216 0.6135 0.3209
vn 0.3698 0.9291 0.0000
vn 0.4996 0.4272 -0.7536
vn 0.3410 0.5143 -0.7869
vn 0.9788 0.1780 -0.1013
vn 0.0000 0.8403 -0.5422
vn 0.3052 0.3723 -0.8765
vn 0.1302 0.5214 -0.8433
vn -0.2003 0.4885 -0.8492
vn -0.3586 0.8619 -0.3586
vn -0.9524 0.2993 -0.0582
vn -0.9081 0.3868 -0.1602
vn -0.5230 0.8524 0.0000
vn -0.1429 0.7791 0.6104
vn 0.1782 0.9677 0.1782
vn -0.2073 0.9561 0.2073
vn -0.1315 0.9825 0.1315
vn -0.1782 0.9677 0.1782
vn -0.1315 0.9825 -0.1315
vn -0.2586 0.9660 0.0000
vn -0.5080 0.8294 0.2324
vn 0.5412 0.6437 0.5412
vn -0.1720 0.6914 0.7017
vn -0.0605 0.8922 0.4475
vn 0.2641 0.9276 0.2641
vn -0.4843 0.2969 0.8230
vn -0.4948 0.3719 0.7854
vn 0.5329 0.3618 0.7649
vn 0.7882 0.5930 -0.1648
vn 0.8949 0.4463 0.0000
vn -0.1999 0.4646 0.8627
vn -0.4014 0.8819 0.2471
vn -0.3516 0.8676 0.3516
vn 0.0000 0.8524 -0.5230
vn -0.3047 0.9024 -0.3047
vn -0.5085 0.3970 -0.7641
vn 0.0000 0.9299 -0.3678
vn 0.5437 0.6393 -0.5437
vn 0.3678 0.9299 0.0000
usemtl Mountain
s off
f 78/1/1 28/2/1 4/3/1 45/4/1
f 77/5/2 34/6/2 8/7/2 41/8/2
f 76/9/3 35/10/3 9/11/3 48/12/3
f 75/13/4 32/14/4 7/15/4 49/16/4
f 74/17/5 50/18/5 21/19/5 37/20/5
f 73/21/6 51/22/6 22/23/6 52/24/6
f 72/25/7 44/26/7 16/27/7 53/28/7
f 71/29/8 54/30/8 20/31/8 36/32/8
f 70/33/9 55/34/9 23/35/9 56/36/9
f 69/37/10 47/38/10 19/39/10 57/40/10
f 68/41/11 58/42/11 13/43/11 29/44/11
f 67/45/12 59/46/12 24/47/12 60/48/12
f 66/49/13 46/50/13 18/51/13 61/52/13
f 65/53/14 62/54/14 17/55/14 33/56/14
f 64/57/15 40/58/15 12/59/15 63/60/15
f 25/61/16 64/57/16 63/60/16
f 21/19/17 49/62/17 64/57/17 25/61/17
f 49/62/18 7/63/18 40/58/18 64/57/18
f 46/64/19 25/65/19 18/66/19
f 9/67/20 37/68/20 25/65/20 46/64/20
f 37/20/21 21/19/21 25/61/21
f 34/6/22 65/53/22 33/56/22 8/7/22
f 18/66/23 25/65/23 65/53/23 34/6/23
f 25/65/24 62/54/24 65/53/24
f 59/69/25 66/70/25 61/71/25 24/72/25
f 20/73/26 48/74/26 66/70/26 59/69/26
f 48/75/27 9/76/27 46/50/27 66/49/27
f 30/77/7 67/78/7 60/79/7 14/80/7
f 5/81/7 36/82/7 67/78/7 30/77/7
f 36/32/28 20/31/28 59/46/28 67/45/28
f 42/83/7 68/41/7 29/44/7 3/84/7
f 14/80/7 60/79/7 68/41/7 42/83/7
f 60/48/29 24/47/29 58/85/29 68/86/29
f 55/34/30 69/37/30 57/40/30 23/35/30
f 15/87/31 31/88/31 69/37/31 55/34/31
f 31/88/32 6/89/32 47/38/32 69/37/32
f 26/90/33 70/33/33 56/36/33 10/91/33
f 1/92/7 43/93/7 70/94/7 26/95/7
f 43/96/34 15/87/34 55/34/34 70/33/34
f 38/97/35 71/98/35 36/82/35 5/81/35
f 10/99/36 56/100/36 71/101/36 38/102/36
f 56/36/37 23/35/37 54/103/37 71/104/37
f 51/105/38 72/106/38 53/107/38 22/108/38
f 11/109/7 27/110/7 72/25/7 51/111/7
f 27/110/7 2/112/7 44/26/7 72/25/7
f 47/38/39 73/21/39 52/24/39 19/39/39
f 6/89/40 39/113/40 73/21/40 47/38/40
f 39/114/41 11/115/41 51/116/41 73/117/41
f 35/10/42 74/118/42 37/119/42 9/11/42
f 19/39/43 52/24/43 74/118/43 35/10/43
f 52/24/44 22/23/44 50/120/44 74/118/44
f 50/18/45 75/121/45 49/62/45 21/19/45
f 22/108/46 53/107/46 75/121/46 50/18/46
f 53/28/7 16/27/7 32/122/7 75/123/7
f 54/103/47 76/9/47 48/12/47 20/124/47
f 23/35/48 57/40/48 76/9/48 54/103/48
f 57/40/49 19/39/49 35/10/49 76/9/49
f 58/42/50 77/5/50 41/8/50 13/43/50
f 24/72/51 61/71/51 77/5/51 58/42/51
f 61/52/52 18/51/52 34/125/52 77/126/52
f 62/54/53 78/1/53 45/4/53 17/55/53
f 25/65/54 63/127/54 78/1/54 62/54/54
f 63/60/55 12/59/55 28/128/55 78/129/55
